<?xml version="1.0" encoding="UTF-8"?> <svg xmlns="http://www.w3.org/2000/svg" xmlns:xlink="http://www.w3.org/1999/xlink" width="138.467" height="37.095" viewBox="0 0 138.467 37.095"><defs><clipPath id="clip-path"><path id="Path_172975" data-name="Path 172975" d="M202.682,75.373l-2.062-4.96L188.243,65.3l7.249,17.444Z" transform="translate(-188.243 -65.302)" fill="#88fca8"></path></clipPath><clipPath id="clip-path-2"><path id="Path_172977" data-name="Path 172977" d="M845.872,450.08l2.061,4.961,12.378,5.11-7.249-17.444Z" transform="translate(-845.872 -442.707)" fill="#88fca8"></path></clipPath></defs><g id="Group_186517" data-name="Group 186517" transform="translate(-13348.034 -4184.849)"><path id="Path_172983" data-name="Path 172983" d="M26.88,203.986a12.515,12.515,0,0,1,1.5-6.153,10.894,10.894,0,0,1,4.1-4.235,11.3,11.3,0,0,1,5.8-1.517,11.8,11.8,0,0,1,6.687,1.851,10.515,10.515,0,0,1,4.052,5.219H46.29a8.02,8.02,0,0,0-3.052-3.7,8.886,8.886,0,0,0-4.952-1.334,8.972,8.972,0,0,0-4.619,1.2,8.339,8.339,0,0,0-3.218,3.452,12.215,12.215,0,0,0,0,10.422,8.362,8.362,0,0,0,3.218,3.435,8.972,8.972,0,0,0,4.619,1.2,8.971,8.971,0,0,0,4.952-1.317,7.946,7.946,0,0,0,3.052-3.652h2.735a10.4,10.4,0,0,1-4.069,5.169,11.9,11.9,0,0,1-6.67,1.834,11.3,11.3,0,0,1-5.8-1.517,10.925,10.925,0,0,1-4.1-4.219A12.42,12.42,0,0,1,26.88,203.986Zm24.712,2.535a10.391,10.391,0,0,1,1.117-4.919,8,8,0,0,1,3.1-3.268,8.777,8.777,0,0,1,4.486-1.151,8.169,8.169,0,0,1,4.486,1.2,6.987,6.987,0,0,1,2.718,3.068v-4h2.334v18.209H67.5v-4.035a7.312,7.312,0,0,1-2.751,3.085,8.085,8.085,0,0,1-4.486,1.217,8.616,8.616,0,0,1-4.452-1.167,8.088,8.088,0,0,1-3.1-3.3A10.491,10.491,0,0,1,51.592,206.52Zm15.908.033a8.017,8.017,0,0,0-.9-3.869,6.425,6.425,0,0,0-2.451-2.568,6.685,6.685,0,0,0-3.418-.9,6.924,6.924,0,0,0-3.468.867,6.146,6.146,0,0,0-2.418,2.518,8.19,8.19,0,0,0-.884,3.919,8.315,8.315,0,0,0,.884,3.919,6.211,6.211,0,0,0,2.418,2.568,6.821,6.821,0,0,0,3.468.884,6.685,6.685,0,0,0,3.418-.9,6.425,6.425,0,0,0,2.451-2.568A8.017,8.017,0,0,0,67.5,206.554Zm9-5.87a5.705,5.705,0,0,1,2.351-2.635,7.532,7.532,0,0,1,3.885-.934v2.435h-.634a5.888,5.888,0,0,0-4.069,1.367q-1.534,1.367-1.534,4.569v10.172H74.17V197.449H76.5Zm16.375-3.5a8.191,8.191,0,0,1,4.469,1.2,7,7,0,0,1,2.735,3.035v-3.969h2.334v18.676a8.918,8.918,0,0,1-1.084,4.436,7.5,7.5,0,0,1-3.018,2.985,9.074,9.074,0,0,1-4.4,1.051,9.711,9.711,0,0,1-5.82-1.667,7.074,7.074,0,0,1-2.885-4.536h2.3a5.6,5.6,0,0,0,2.284,3.035,7.205,7.205,0,0,0,4.119,1.134,6.6,6.6,0,0,0,3.168-.75,5.358,5.358,0,0,0,2.2-2.218,7.137,7.137,0,0,0,.8-3.468v-4.5a7.312,7.312,0,0,1-2.751,3.085,8.023,8.023,0,0,1-4.452,1.217,8.679,8.679,0,0,1-4.486-1.167,8.089,8.089,0,0,1-3.1-3.3,11.425,11.425,0,0,1,0-9.855,8,8,0,0,1,3.1-3.268A8.777,8.777,0,0,1,92.879,197.182Zm7.2,9.371a8.017,8.017,0,0,0-.9-3.869,6.425,6.425,0,0,0-2.451-2.568,6.685,6.685,0,0,0-3.418-.9,6.924,6.924,0,0,0-3.468.867,6.146,6.146,0,0,0-2.418,2.518,8.19,8.19,0,0,0-.884,3.919,8.315,8.315,0,0,0,.884,3.919,6.211,6.211,0,0,0,2.418,2.568,6.821,6.821,0,0,0,3.468.884,6.685,6.685,0,0,0,3.418-.9,6.425,6.425,0,0,0,2.451-2.568A8.017,8.017,0,0,0,100.083,206.554Zm14.641,9.371a9.277,9.277,0,0,1-4.619-1.151,8.316,8.316,0,0,1-3.235-3.268,9.983,9.983,0,0,1-1.184-4.952,9.872,9.872,0,0,1,1.2-4.952,8.4,8.4,0,0,1,3.268-3.268,9.37,9.37,0,0,1,4.636-1.151,9.464,9.464,0,0,1,4.652,1.151,8.253,8.253,0,0,1,3.268,3.268,10.847,10.847,0,0,1-.017,9.888,8.306,8.306,0,0,1-3.3,3.285A9.559,9.559,0,0,1,114.723,215.925Zm0-2.034a6.984,6.984,0,0,0,3.335-.817,6.236,6.236,0,0,0,2.485-2.468,8.005,8.005,0,0,0,.95-4.052,8.121,8.121,0,0,0-.934-4.052,6.13,6.13,0,0,0-2.468-2.468,7.215,7.215,0,0,0-6.67,0,6.025,6.025,0,0,0-2.451,2.468,9.41,9.41,0,0,0,0,8.1,6.055,6.055,0,0,0,2.435,2.468A6.888,6.888,0,0,0,114.723,213.891Z" transform="translate(13321.404 3997.097)" fill="#6734e0" stroke="#6734e0" stroke-width="0.5"></path><g id="Group_186513" data-name="Group 186513" transform="translate(13441.27 4184.849)"><g id="Group_186509" data-name="Group 186509" transform="translate(5.605 1.945)"><g id="Group_186508" data-name="Group 186508" clip-path="url(#clip-path)"><rect id="Rectangle_61838" data-name="Rectangle 61838" width="15.905" height="18.636" transform="translate(-1.515 0.133) rotate(-5)" fill="#88fca8"></rect></g></g><path id="Path_172976" data-name="Path 172976" d="M0,424.072l13.373-.162,10.62-10.892-3.948-9.5Z" transform="translate(0 -391.502)" fill="#35ed7f"></path><g id="Group_186511" data-name="Group 186511" transform="translate(25.187 13.182)"><g id="Group_186510" data-name="Group 186510" clip-path="url(#clip-path-2)"><rect id="Rectangle_61839" data-name="Rectangle 61839" width="20" height="21.632" transform="translate(-6.149 2.536) rotate(-22.414)" fill="#88fca8"></rect></g></g><path id="Path_172978" data-name="Path 172978" d="M737.281,0,723.908.161l-10.62,10.892,3.948,9.5Z" transform="translate(-692.049 0.001)" fill="#35ed7f"></path></g></g></svg> 