<?xml version="1.0" encoding="UTF-8"?> <svg xmlns="http://www.w3.org/2000/svg" version="1.2" viewBox="0 0 1713 401" width="1713" height="401"><title>SRX-svg</title><defs><clipPath id="cp1"><path d="m1500.81 109.03l-17.1-41.2-102.8-42.4 60.2 144.8z"></path></clipPath><clipPath id="cp2"><path d="m1543.45 179.88l17.2 41.2 102.7 42.4-60.2-144.8z"></path></clipPath></defs><style> .s0 { fill: #6734e0;stroke: #6734e0 } .s1 { fill: #88fca8 } .s2 { fill: #35ed7f } .s3 { fill: #0b0757 } </style><g id="Layer"><path id="Path_172984_00000126283065009805445740000014851716448392644282_" fill-rule="evenodd" class="s0" d="m68.7 279.9c-12.5 0-23.5-2.2-33-6.5-9.5-4.3-17-10.4-22.4-18.2-5.4-7.8-8.3-16.5-8.7-26h20.1c0.9 9.2 5 17.3 12.2 24.3 7.2 7 17.8 10.4 31.7 10.4 12.8 0 23-3.3 30.5-9.9 7.5-6.6 11.3-15 11.3-25.1 0-8.1-2.1-14.7-6.2-19.7-4.1-5-9.5-8.8-15.5-11.1-6.1-2.4-14.6-5.1-25.5-8-12.7-3.4-22.7-6.8-30.1-10-7.4-3.3-13.7-8.3-19-15.2-5.2-6.9-7.9-16.2-7.9-27.9 0-9.8 2.5-18.5 7.6-26.2 5.1-7.7 12.2-13.7 21.4-18 9.2-4.3 19.8-6.5 31.7-6.5 17.5 0 31.7 4.3 42.5 12.9 10.8 8.6 17 19.7 18.6 33.2h-20.6c-1.3-7.8-5.5-14.7-12.7-20.8-7.2-6.1-17-9.1-29.3-9.1-11.4 0-20.9 3-28.5 9.1-7.6 6.1-11.4 14.3-11.4 24.8 0 8 2.1 14.4 6.2 19.3q6.3 7.4 15.6 11.1c6.2 2.5 14.7 5.2 25.4 8.1 12.3 3.4 22.2 6.8 29.8 10.2 7.6 3.3 14 8.5 19.3 15.3 5.2 6.9 7.9 16.1 7.9 27.7 0 8.9-2.4 17.3-7.1 25.2-4.7 8-11.7 14.4-20.9 19.3-9.1 4.8-20.1 7.3-33 7.3zm160.1-152.7c11.2 0 21.3 2.4 30.2 7.1 9 4.7 16 11.9 21.2 21.6 5.2 9.7 7.7 21.5 7.7 35.4v86.8h-18.7v-84.6c0-16.1-4-28.4-12.1-36.9-8-8.5-19-12.7-33-12.7-14.3 0-25.7 4.5-34.2 13.6-8.5 9.1-12.6 22.1-12.6 39.7v80.8h-19v-200.8h19v77.9c4.7-8.9 11.6-15.7 20.8-20.6 9.2-4.9 19.3-7.3 30.7-7.3zm102.5-25.3c-3.8 0-7.1-1.4-9.8-4.1-2.7-2.7-4.1-6.1-4.1-10 0-3.9 1.4-7.3 4.1-9.9 2.7-2.6 6-3.9 9.8-3.9 3.8 0 7.1 1.3 9.8 3.9 2.7 2.6 4.1 5.9 4.1 9.9 0 4-1.4 7.3-4.1 10-2.7 2.8-6 4.1-9.8 4.1zm9.5 28v148.1h-19v-148.1zm53.7 32.5c4.7-9.9 12.2-18.2 22.4-24.8 10.2-6.6 22.4-9.9 36.5-9.9 13.4 0 25.5 3.1 36.2 9.4 10.8 6.2 19.2 15.1 25.2 26.6 6.1 11.5 9.1 24.8 9.1 40 0 15.2-3 28.6-9.1 40.1-6.1 11.6-14.5 20.5-25.2 26.9-10.8 6.3-22.8 9.5-36.2 9.5-13.9 0-26-3.3-36.4-9.9-10.4-6.6-17.8-14.9-22.5-24.8v102.5h-18.7v-218.1h18.7zm110.2 41.3c0-12.3-2.4-22.9-7.2-31.9-4.8-9-11.3-15.8-19.7-20.5-8.3-4.7-17.7-7.1-28.2-7.1-10.1 0-19.4 2.4-27.8 7.3-8.4 4.9-15.1 11.8-19.9 20.9-4.9 9-7.3 19.5-7.3 31.5 0 12 2.4 22.4 7.3 31.5 4.9 9.1 11.5 16 19.9 20.9 8.4 4.9 17.7 7.3 27.8 7.3q15.8 0 28.2-7.2c8.3-4.8 14.9-11.8 19.7-20.9q7.2-13.6 7.2-31.8zm65.1-47.5c4.2-9.2 10.5-16.4 19.1-21.4 8.6-5.1 19.1-7.6 31.6-7.6v19.8h-5.2c-13.7 0-24.8 3.7-33.1 11.1-8.3 7.4-12.5 19.8-12.5 37.2v82.7h-19v-148.1h19v26.3zm135.9 124c-13.9 0-26.4-3.1-37.6-9.4-11.1-6.2-19.9-15.1-26.3-26.6-6.4-11.5-9.6-24.9-9.6-40.3 0-15.4 3.3-28.8 9.8-40.3 6.5-11.5 15.4-20.3 26.6-26.6 11.2-6.2 23.8-9.4 37.7-9.4 13.9 0 26.5 3.1 37.8 9.4 11.3 6.2 20.2 15.1 26.6 26.6 6.4 11.5 9.6 24.9 9.6 40.3 0 15.2-3.3 28.6-9.8 40.1-6.5 11.6-15.5 20.5-26.9 26.7-11.3 6.3-24 9.5-37.9 9.5zm0-16.6c9.8 0 18.8-2.2 27.1-6.6 8.3-4.4 15.1-11.1 20.2-20.1 5.2-9 7.7-19.9 7.7-33 0-13-2.5-24-7.6-33-5.1-9-11.8-15.6-20.1-20.1-8.3-4.4-17.4-6.6-27.1-6.6-9.8 0-18.8 2.2-27.1 6.6-8.3 4.4-15 11.1-19.9 20.1-5 9-7.5 19.9-7.5 33q0 19.5 7.5 33c5 9 11.6 15.6 19.8 20.1 8.2 4.5 17.2 6.6 27 6.6zm92.5-59.7c0-15.4 3.1-28.8 9.2-40.3 6.1-11.5 14.6-20.3 25.5-26.6 10.9-6.2 23.2-9.4 37.2-9.4 18.3 0 33.3 4.5 45.2 13.6 11.9 9.1 19.5 21.3 22.9 36.9h-20.3c-2.5-10.7-8-19-16.4-25.1-8.4-6.1-18.9-9.1-31.3-9.1-9.9 0-18.9 2.3-26.9 6.8-8 4.5-14.2 11.3-18.9 20.2-4.6 9-6.9 19.9-6.9 33 0 13 2.3 24.1 6.9 33.1 4.6 9 10.9 15.8 18.9 20.3 8 4.5 16.9 6.8 26.9 6.8 12.5 0 22.9-3 31.3-9.1 8.4-6.1 13.9-14.5 16.4-25.4h20.3q-5.1 22.8-23.1 36.6-17.8 13.8-45 13.8c-13.9 0-26.3-3.1-37.2-9.4-10.9-6.2-19.4-15.1-25.5-26.6-6.1-11.3-9.2-24.7-9.2-40.1zm246.9 74.1l-61-66.5v66.5h-19v-200.8h19v118.8l59.7-66.2h26.6l-70.3 73.8 70.8 74.3h-25.8zm176-81.7c0 6.5-0.2 11.5-0.5 14.9h-122.9c0.5 11.2 3.3 20.8 8.1 28.8 4.9 8 11.3 14 19.3 18 8 4.1 16.6 6.1 26 6.1 12.3 0 22.7-3 31.1-9 8.4-6 14-14 16.7-24.1h20.1c-3.6 14.5-11.3 26.3-23.2 35.4-11.8 9.1-26.7 13.7-44.6 13.7-13.9 0-26.4-3.1-37.4-9.4-11-6.2-19.7-15.1-25.9-26.6-6.2-11.5-9.4-24.9-9.4-40.3 0-15.4 3.1-28.8 9.2-40.4 6.1-11.6 14.7-20.4 25.8-26.6 11-6.1 23.6-9.2 37.7-9.2 14.1 0 26.4 3.1 37 9.2 10.6 6.1 18.7 14.4 24.4 24.8 5.7 10.5 8.5 22.1 8.5 34.7zm-19.2-0.5q0.3-16.5-6.6-28.2c-4.6-7.8-10.9-13.7-18.9-17.6-8-4-16.6-6-26-6-14.1 0-26.1 4.5-36.1 13.6-9.9 9-15.5 21.8-16.5 38.2zm70.5-49.9v92c0 9 1.7 15.3 5.2 18.7 3.4 3.4 9.5 5.2 18.2 5.2h17.4v16.3h-20.3c-13.4 0-23.3-3.1-29.8-9.4-6.5-6.2-9.8-16.5-9.8-30.8v-92h-20.6v-16h20.6v-37.2h19.3v37.2h40.7v16z"></path><g id="Group_186547_00000004508771525312998430000013605022613466608777_"><g id="Group_186509_00000048484215411247320070000012473261928630631597_"><g id="Layer"><g id="Layer"><g id="Clip-Path: Group_186508_00000109029505618757852650000010941985591139996554_" clip-path="url(#cp1)"><g id="Group_186508_00000109029505618757852650000010941985591139996554_"><path id="Rectangle_61838_00000040561264030169127620000018189555346338190467_" class="s1" d="m1368.3 26.2l131.5-11.5 13.5 154.1-131.5 11.5z"></path></g></g></g></g></g><path id="Path_172976_00000037693808181560816160000009188922364793828523_" class="s2" d="m1334.4 279.6l111-1.3 88.2-90.4-32.8-78.9z"></path><g id="Group_186511_00000044161786092929532760000016984083005784694155_"><g id="Layer"><g id="Layer"><g id="Clip-Path: Group_186510_00000161626776074926435120000011984756882086134969_" clip-path="url(#cp2)"><g id="Group_186510_00000161626776074926435120000011984756882086134969_"><path id="Rectangle_61839_00000036938367977007928590000012278339277642807972_" class="s1" d="m1491.5 138l153.4-63.3 68.5 166-153.4 63.3z"></path></g></g></g></g></g><path id="Path_172978_00000126282025114664746980000015584666444155581621_" class="s2" d="m1709.9 9.2l-111 1.3-88.2 90.4 32.8 78.9z"></path></g><g id="Layer"><path id="Layer" class="s3" d="m831.5 338.6c3.2-5.6 7.6-10 13.1-13.1 5.5-3.1 11.8-4.7 18.7-4.7 8.1 0 15.1 2.1 21.2 6.2 6.1 4.1 10.3 9.9 12.7 17.2h-16.6c-1.7-3.4-4-6-7-7.8-3-1.7-6.5-2.6-10.4-2.6-4.2 0-7.9 1-11.2 2.9-3.3 2-5.8 4.7-7.6 8.3q-2.7 5.4-2.7 12.6c0 4.8 0.9 8.9 2.7 12.6 1.8 3.6 4.4 6.4 7.6 8.4 3.3 2 7 2.9 11.2 2.9 3.9 0 7.4-0.9 10.4-2.6 3-1.8 5.3-4.4 7-7.8h16.6c-2.4 7.4-6.6 13.1-12.7 17.2-6 4.1-13.1 6.1-21.2 6.1-6.9 0-13.1-1.6-18.7-4.7-5.5-3.1-9.9-7.5-13.1-13.1-3.2-5.6-4.8-11.9-4.8-19 0-7.1 1.6-13.4 4.8-19z"></path><path id="Layer" fill-rule="evenodd" class="s3" d="m952.4 393.8l-15.9-28.1h-6.8v28.1h-14.5v-72.1h27.1c5.6 0 10.3 1 14.3 2.9 3.9 2 6.9 4.6 8.8 8 2 3.3 2.9 7.1 2.9 11.2 0 4.8-1.4 9-4.1 12.9-2.8 3.8-6.9 6.5-12.3 7.9l17.3 29.3zm-22.8-39h12.1c3.9 0 6.9-0.9 8.8-2.8 1.9-1.9 2.9-4.5 2.9-7.9 0-3.3-1-5.9-2.9-7.7-1.9-1.8-4.9-2.7-8.8-2.7h-12.1z"></path><path id="Layer" fill-rule="evenodd" class="s3" d="m1001.9 389.8c-5.7-3.2-10.1-7.6-13.4-13.2-3.3-5.6-5-12-5-19.1 0-7 1.7-13.3 5-19 3.3-5.6 7.8-10 13.4-13.2 5.6-3.2 11.9-4.8 18.6-4.8 6.8 0 13 1.6 18.7 4.8 5.6 3.2 10.1 7.6 13.3 13.2 3.3 5.6 4.9 11.9 4.9 19 0 7.1-1.6 13.5-4.9 19.1-3.3 5.6-7.7 10-13.4 13.2q-8.6 4.8-18.6 4.8c-6.8-0.1-13-1.6-18.6-4.8zm30-11.1q5-3 7.8-8.4c1.9-3.7 2.8-7.9 2.8-12.7 0-4.8-0.9-9-2.8-12.7-1.9-3.6-4.4-6.4-7.8-8.3-3.3-1.9-7.1-2.9-11.5-2.9-4.3 0-8.2 1-11.5 2.9-3.3 1.9-5.9 4.7-7.8 8.3-1.9 3.6-2.8 7.8-2.8 12.7 0 4.8 0.9 9.1 2.8 12.7q2.9 5.6 7.8 8.4c3.3 2 7.2 2.9 11.5 2.9 4.4 0 8.2-1 11.5-2.9z"></path><path id="Layer" class="s3" d="m1085 392c-4-1.7-7.2-4.2-9.6-7.4-2.3-3.2-3.6-7.1-3.6-11.5h15.5c0.2 3 1.3 5.3 3.2 7 1.9 1.7 4.5 2.6 7.8 2.6 3.4 0 6-0.8 8-2.4 1.9-1.6 2.9-3.7 2.9-6.4 0-2.1-0.7-3.9-2-5.3-1.3-1.4-2.9-2.5-4.9-3.3-2-0.8-4.7-1.7-8.1-2.6-4.7-1.4-8.5-2.7-11.4-4.1-2.9-1.3-5.4-3.4-7.5-6.1-2.1-2.7-3.2-6.4-3.2-10.9 0-4.3 1.1-8 3.2-11.2 2.1-3.2 5.1-5.6 9-7.3 3.9-1.7 8.3-2.5 13.2-2.5 7.4 0 13.5 1.8 18.1 5.4 4.7 3.6 7.2 8.7 7.7 15.1h-15.9c-0.1-2.5-1.2-4.5-3.2-6.2q-3-2.4-7.8-2.4c-2.8 0-5.1 0.7-6.8 2.2-1.7 1.4-2.5 3.5-2.5 6.3 0 1.9 0.6 3.5 1.9 4.8 1.3 1.3 2.9 2.3 4.8 3.1 1.9 0.8 4.6 1.7 8 2.7 4.7 1.4 8.5 2.8 11.5 4.1 3 1.4 5.5 3.4 7.6 6.2 2.1 2.8 3.2 6.4 3.2 10.9 0 3.9-1 7.4-3 10.7-2 3.3-4.9 5.9-8.8 7.9-3.9 2-8.4 2.9-13.7 2.9-5 0.2-9.6-0.6-13.6-2.3z"></path><path id="Layer" class="s3" d="m1153.5 392c-4-1.7-7.2-4.2-9.6-7.4-2.3-3.2-3.6-7.1-3.6-11.5h15.5c0.2 3 1.3 5.3 3.2 7 1.9 1.7 4.5 2.6 7.8 2.6 3.4 0 6-0.8 8-2.4 1.9-1.6 2.9-3.7 2.9-6.4 0-2.1-0.7-3.9-2-5.3-1.3-1.4-2.9-2.5-4.9-3.3-2-0.8-4.7-1.7-8.1-2.6-4.7-1.4-8.5-2.7-11.4-4.1-2.9-1.3-5.4-3.4-7.5-6.1-2.1-2.7-3.2-6.4-3.2-10.9 0-4.3 1.1-8 3.2-11.2 2.1-3.2 5.1-5.6 9-7.3 3.9-1.7 8.3-2.5 13.2-2.5 7.4 0 13.5 1.8 18.1 5.4 4.7 3.6 7.2 8.7 7.7 15.1h-15.9c-0.1-2.5-1.2-4.5-3.2-6.2q-3-2.4-7.8-2.4c-2.8 0-5.1 0.7-6.8 2.2-1.7 1.4-2.5 3.5-2.5 6.3 0 1.9 0.6 3.5 1.9 4.8 1.3 1.3 2.9 2.3 4.8 3.1 1.9 0.8 4.6 1.7 8 2.7 4.7 1.4 8.5 2.8 11.5 4.1 3 1.4 5.5 3.4 7.6 6.2 2.1 2.8 3.2 6.4 3.2 10.9 0 3.9-1 7.4-3 10.7-2 3.3-4.9 5.9-8.8 7.9-3.9 2-8.4 2.9-13.7 2.9-5 0.2-9.5-0.6-13.6-2.3z"></path><path id="Layer" fill-rule="evenodd" class="s3" d="m1291.9 362.9q3.9 5 3.9 11.4c0 3.9-0.9 7.3-2.8 10.2-1.9 2.9-4.6 5.2-8.2 6.9-3.6 1.7-7.8 2.5-12.7 2.5h-31.1v-72.1h29.8c4.9 0 9.1 0.8 12.7 2.4q5.2 2.4 8.1 6.6 2.7 4.2 2.7 9.6c0 4.2-1.1 7.7-3.4 10.5-2.2 2.8-5.2 4.8-8.9 6 3.9 0.7 7.3 2.7 9.9 6zm-36.5-11.5h13.2c3.4 0 6.1-0.8 8-2.3 1.9-1.6 2.8-3.8 2.8-6.7 0-2.9-0.9-5.1-2.8-6.7-1.9-1.6-4.5-2.4-8-2.4h-13.2zm22.8 28.1c2-1.7 2.9-4 2.9-7 0-3.1-1-5.5-3.1-7.3-2.1-1.8-4.9-2.6-8.4-2.6h-14.3v19.4h14.6c3.6 0 6.3-0.8 8.3-2.5z"></path><path id="Layer" fill-rule="evenodd" class="s3" d="m1327.9 389.8c-5.7-3.2-10.1-7.6-13.4-13.2-3.3-5.6-5-12-5-19.1 0-7 1.7-13.3 5-19 3.3-5.6 7.8-10 13.4-13.2 5.6-3.2 11.9-4.8 18.6-4.8 6.8 0 13 1.6 18.7 4.8 5.6 3.2 10.1 7.6 13.3 13.2 3.3 5.6 4.9 11.9 4.9 19 0 7.1-1.6 13.5-4.9 19.1-3.3 5.6-7.7 10-13.4 13.2q-8.6 4.8-18.6 4.8c-6.8-0.1-13-1.6-18.6-4.8zm30-11.1q5-3 7.8-8.4c1.9-3.7 2.8-7.9 2.8-12.7 0-4.8-0.9-9-2.8-12.7-1.9-3.6-4.4-6.4-7.8-8.3-3.3-1.9-7.1-2.9-11.5-2.9-4.3 0-8.2 1-11.5 2.9-3.3 1.9-5.9 4.7-7.8 8.3-1.9 3.6-2.8 7.8-2.8 12.7 0 4.8 0.9 9.1 2.8 12.7q2.9 5.6 7.8 8.4c3.3 2 7.2 2.9 11.5 2.9 4.4 0 8.2-1 11.5-2.9z"></path><path id="Layer" fill-rule="evenodd" class="s3" d="m1436.9 393.8l-15.9-28.1h-6.8v28.1h-14.5v-72.1h27.1c5.6 0 10.3 1 14.3 2.9 3.9 2 6.9 4.6 8.8 8 2 3.3 2.9 7.1 2.9 11.2 0 4.8-1.4 9-4.1 12.9-2.8 3.8-6.9 6.5-12.3 7.9l17.3 29.3zm-22.7-39h12.1c3.9 0 6.9-0.9 8.8-2.8 1.9-1.9 2.9-4.5 2.9-7.9 0-3.3-1-5.9-2.9-7.7-1.9-1.8-4.9-2.7-8.8-2.7h-12.1z"></path><path id="Layer" fill-rule="evenodd" class="s3" d="m1516.8 326.1c5.8 3 10.2 7.2 13.3 12.7 3.1 5.5 4.7 11.8 4.7 19.1 0 7.2-1.6 13.6-4.7 19-3.1 5.4-7.6 9.6-13.3 12.6-5.8 3-12.4 4.4-20 4.4h-25.2v-72.1h25.2c7.5-0.1 14.2 1.3 20 4.3zm-3 49.2c4.1-4.1 6.2-10 6.2-17.5 0-7.5-2.1-13.4-6.2-17.6-4.1-4.2-10-6.4-17.6-6.4h-10.2v47.7h10.2c7.6 0 13.5-2.1 17.6-6.2z"></path><path id="Layer" class="s3" d="m1565.7 333.3v18.1h24.3v11.5h-24.3v19.1h27.4v11.8h-41.9v-72.3h41.9v11.8z"></path><path id="Layer" fill-rule="evenodd" class="s3" d="m1649 393.8l-15.9-28.1h-6.8v28.1h-14.5v-72.1h27.1c5.6 0 10.3 1 14.3 2.9 3.9 2 6.9 4.6 8.8 8 2 3.3 2.9 7.1 2.9 11.2 0 4.8-1.4 9-4.1 12.9-2.8 3.8-6.9 6.5-12.3 7.9l17.3 29.3zm-22.7-39h12.1c3.9 0 6.9-0.9 8.8-2.8 1.9-1.9 2.9-4.5 2.9-7.9 0-3.3-1-5.9-2.9-7.7-1.9-1.8-4.9-2.7-8.8-2.7h-12.1z"></path></g></g></svg> 