<?xml version="1.0" encoding="UTF-8"?> <svg xmlns="http://www.w3.org/2000/svg" xmlns:xlink="http://www.w3.org/1999/xlink" width="155.818" height="32.22" viewBox="0 0 155.818 32.22"><defs><clipPath id="clip-path"><path id="Path_172975" data-name="Path 172975" d="M202.527,75.264l-2.039-4.907L188.243,65.3l7.171,17.256Z" transform="translate(-188.243 -65.302)" fill="#88fca8"></path></clipPath><clipPath id="clip-path-2"><path id="Path_172977" data-name="Path 172977" d="M845.872,450l2.039,4.907,12.244,5.055-7.171-17.256Z" transform="translate(-845.872 -442.707)" fill="#88fca8"></path></clipPath></defs><g id="Group_186516" data-name="Group 186516" transform="translate(-13364.078 -2734.656)"><path id="Path_172981" data-name="Path 172981" d="M47.109,196.132H55.39v1.88H44.8v-23.06h2.309Zm9.534-7.159a10.279,10.279,0,0,1,1.105-4.866,7.915,7.915,0,0,1,3.068-3.233,8.683,8.683,0,0,1,4.437-1.138,8.081,8.081,0,0,1,4.437,1.188,6.912,6.912,0,0,1,2.689,3.035V180h2.309v18.013H72.38v-3.992a7.234,7.234,0,0,1-2.722,3.052,8,8,0,0,1-4.437,1.2,8.523,8.523,0,0,1-4.4-1.155,8,8,0,0,1-3.068-3.266A10.378,10.378,0,0,1,56.644,188.973Zm15.736.033a7.931,7.931,0,0,0-.891-3.827,6.356,6.356,0,0,0-2.425-2.54,6.613,6.613,0,0,0-3.382-.891,6.85,6.85,0,0,0-3.431.858A6.08,6.08,0,0,0,59.86,185.1a8.1,8.1,0,0,0-.874,3.876,8.225,8.225,0,0,0,.874,3.876,6.144,6.144,0,0,0,2.392,2.54,6.748,6.748,0,0,0,3.431.874,6.613,6.613,0,0,0,3.382-.891,6.355,6.355,0,0,0,2.425-2.54A7.931,7.931,0,0,0,72.38,189.006ZM94.582,180v18.013H92.273v-3.167a5.535,5.535,0,0,1-2.441,2.573,7.65,7.65,0,0,1-3.695.891,7.24,7.24,0,0,1-5.278-2,7.728,7.728,0,0,1-2.045-5.79V180h2.276v10.26a6.283,6.283,0,0,0,1.468,4.487,5.256,5.256,0,0,0,4.008,1.551,5.433,5.433,0,0,0,4.157-1.65,6.833,6.833,0,0,0,1.551-4.85V180Zm12.734-.33a7.24,7.24,0,0,1,5.278,2,7.728,7.728,0,0,1,2.045,5.79v10.557h-2.276V187.72a6.283,6.283,0,0,0-1.468-4.487,5.256,5.256,0,0,0-4.008-1.551,5.433,5.433,0,0,0-4.157,1.65,6.833,6.833,0,0,0-1.551,4.85v9.831H98.871V180h2.309v3.068a5.894,5.894,0,0,1,2.474-2.524A7.573,7.573,0,0,1,107.317,179.67Zm10.392,9.336a10.228,10.228,0,0,1,1.122-4.9,7.991,7.991,0,0,1,3.1-3.233,8.9,8.9,0,0,1,4.52-1.138,8.8,8.8,0,0,1,5.493,1.65,7.468,7.468,0,0,1,2.788,4.487h-2.474a5.065,5.065,0,0,0-2-3.052,6.349,6.349,0,0,0-3.81-1.105,6.494,6.494,0,0,0-3.266.825A5.783,5.783,0,0,0,120.892,185a8.679,8.679,0,0,0-.841,4.008,8.783,8.783,0,0,0,.841,4.025,5.765,5.765,0,0,0,2.293,2.474,6.494,6.494,0,0,0,3.266.825,6.349,6.349,0,0,0,3.81-1.105,5.078,5.078,0,0,0,2-3.085h2.474a7.555,7.555,0,0,1-2.8,4.454,8.691,8.691,0,0,1-5.476,1.682,8.9,8.9,0,0,1-4.52-1.138,7.991,7.991,0,0,1-3.1-3.233A10.228,10.228,0,0,1,117.709,189.006Zm28.867-9.336a7.789,7.789,0,0,1,3.678.858,6.112,6.112,0,0,1,2.573,2.623,9.058,9.058,0,0,1,.94,4.305v10.557h-2.276V187.72a6.283,6.283,0,0,0-1.468-4.487,5.256,5.256,0,0,0-4.008-1.551,5.433,5.433,0,0,0-4.157,1.65,6.833,6.833,0,0,0-1.551,4.85v9.831H138V173.6h2.309v9.468a5.97,5.97,0,0,1,2.524-2.507A7.815,7.815,0,0,1,146.575,179.67Z" transform="translate(13319.528 2564.25)" fill="#6734e0" stroke="#6734e0" stroke-width="0.5"></path><g id="Group_186512" data-name="Group 186512" transform="translate(13475.152 2734.656)"><g id="Group_186509" data-name="Group 186509" transform="translate(5.545 1.924)"><g id="Group_186508" data-name="Group 186508" clip-path="url(#clip-path)"><rect id="Rectangle_61838" data-name="Rectangle 61838" width="15.733" height="18.435" transform="translate(-1.498 0.131) rotate(-5)" fill="#88fca8"></rect></g></g><path id="Path_172976" data-name="Path 172976" d="M0,423.851l13.228-.16,10.505-10.774-3.905-9.4Z" transform="translate(0 -391.631)" fill="#35ed7f"></path><g id="Group_186511" data-name="Group 186511" transform="translate(24.916 13.04)"><g id="Group_186510" data-name="Group 186510" clip-path="url(#clip-path-2)"><rect id="Rectangle_61839" data-name="Rectangle 61839" width="19.784" height="21.399" transform="translate(-6.083 2.509) rotate(-22.414)" fill="#88fca8"></rect></g></g><path id="Path_172978" data-name="Path 172978" d="M737.022,0l-13.228.16L713.289,10.934l3.905,9.4Z" transform="translate(-692.278 0.001)" fill="#35ed7f"></path></g></g></svg> 