<?xml version="1.0" encoding="UTF-8"?> <svg xmlns="http://www.w3.org/2000/svg" xmlns:xlink="http://www.w3.org/1999/xlink" width="106.614" height="36.985" viewBox="0 0 106.614 36.985"><defs><clipPath id="clip-path"><path id="Path_172975" data-name="Path 172975" d="M202.771,75.435,200.7,70.444,188.243,65.3l7.294,17.551Z" transform="translate(-188.243 -65.302)" fill="#88fca8"></path></clipPath><clipPath id="clip-path-2"><path id="Path_172977" data-name="Path 172977" d="M845.872,450.125l2.074,4.991,12.454,5.142-7.294-17.551Z" transform="translate(-845.872 -442.707)" fill="#88fca8"></path></clipPath></defs><g id="Group_273053" data-name="Group 273053" transform="translate(-13352.505 -705.958)" opacity="0.996"><path id="Path_172985" data-name="Path 172985" d="M39.279,192.348a9.714,9.714,0,0,1-4.077-.805,6.667,6.667,0,0,1-2.768-2.248,5.9,5.9,0,0,1-1.074-3.221h2.483a4.717,4.717,0,0,0,1.51,3,5.446,5.446,0,0,0,3.926,1.292,5.514,5.514,0,0,0,3.775-1.225,3.954,3.954,0,0,0,1.392-3.1,3.667,3.667,0,0,0-.772-2.433,4.724,4.724,0,0,0-1.913-1.376,29.665,29.665,0,0,0-3.154-.99A27.577,27.577,0,0,1,34.883,180a5.928,5.928,0,0,1-2.349-1.879,5.563,5.563,0,0,1-.973-3.456,5.753,5.753,0,0,1,.94-3.238,6.293,6.293,0,0,1,2.651-2.231,9.119,9.119,0,0,1,3.926-.805,8.167,8.167,0,0,1,5.251,1.594,5.989,5.989,0,0,1,2.3,4.11h-2.55a4.216,4.216,0,0,0-1.577-2.567,5.466,5.466,0,0,0-3.624-1.124,5.472,5.472,0,0,0-3.523,1.124,3.715,3.715,0,0,0-1.409,3.07,3.548,3.548,0,0,0,.772,2.382,4.919,4.919,0,0,0,1.929,1.376,28.587,28.587,0,0,0,3.137,1.007,28.335,28.335,0,0,1,3.691,1.258,6.012,6.012,0,0,1,2.382,1.9,5.5,5.5,0,0,1,.973,3.423,6.039,6.039,0,0,1-.872,3.121,6.367,6.367,0,0,1-2.584,2.382A8.64,8.64,0,0,1,39.279,192.348Zm19.8-18.891a7.922,7.922,0,0,1,3.741.872A6.217,6.217,0,0,1,65.434,177a9.213,9.213,0,0,1,.956,4.379v10.737H64.075V181.644a6.39,6.39,0,0,0-1.493-4.563,5.345,5.345,0,0,0-4.077-1.577,5.526,5.526,0,0,0-4.228,1.678,6.95,6.95,0,0,0-1.577,4.932v10H50.352v-24.83H52.7v9.63a6.072,6.072,0,0,1,2.567-2.55A7.949,7.949,0,0,1,59.076,173.457Zm12.683-3.121a1.647,1.647,0,0,1-1.208-.5,1.687,1.687,0,0,1-.5-1.242,1.632,1.632,0,0,1,.5-1.225,1.743,1.743,0,0,1,2.416,0,1.632,1.632,0,0,1,.5,1.225,1.687,1.687,0,0,1-.5,1.242A1.647,1.647,0,0,1,71.759,170.336Zm1.174,3.456v18.321H70.585V173.792Zm6.644,4.026a7.409,7.409,0,0,1,2.768-3.07,8.135,8.135,0,0,1,4.513-1.225,8.766,8.766,0,0,1,4.479,1.158,8.05,8.05,0,0,1,3.121,3.288,11.495,11.495,0,0,1,0,9.915,8.138,8.138,0,0,1-3.121,3.322,8.669,8.669,0,0,1-4.479,1.174,8.156,8.156,0,0,1-4.5-1.225,7.377,7.377,0,0,1-2.785-3.07V200.77H77.262V173.792h2.315Zm13.623,5.1a8.24,8.24,0,0,0-.889-3.943,6.184,6.184,0,0,0-2.433-2.533,6.967,6.967,0,0,0-3.49-.872,6.726,6.726,0,0,0-3.439.906,6.464,6.464,0,0,0-2.466,2.584,8.814,8.814,0,0,0,0,7.785,6.464,6.464,0,0,0,2.466,2.584,6.726,6.726,0,0,0,3.439.906,6.863,6.863,0,0,0,3.49-.889,6.249,6.249,0,0,0,2.433-2.584A8.366,8.366,0,0,0,93.2,182.919Z" transform="translate(13321.404 541.924)" fill="#6734e0" stroke="#6734e0" stroke-width="0.5"></path><g id="Group_186515" data-name="Group 186515" transform="translate(13413.61 705.959)"><g id="Group_186509" data-name="Group 186509" transform="translate(5.64 1.956)"><g id="Group_186508" data-name="Group 186508" clip-path="url(#clip-path)"><rect id="Rectangle_61838" data-name="Rectangle 61838" width="16.002" height="18.75" transform="translate(-1.524 0.133) rotate(-5)" fill="#88fca8"></rect></g></g><path id="Path_172976" data-name="Path 172976" d="M0,424.2l13.454-.163,10.685-10.958-3.972-9.56Z" transform="translate(0 -391.428)" fill="#35ed7f"></path><g id="Group_186511" data-name="Group 186511" transform="translate(25.341 13.263)"><g id="Group_186510" data-name="Group 186510" clip-path="url(#clip-path-2)"><rect id="Rectangle_61839" data-name="Rectangle 61839" width="20.122" height="21.764" transform="translate(-6.186 2.552) rotate(-22.414)" fill="#88fca8"></rect></g></g><path id="Path_172978" data-name="Path 172978" d="M737.428,0,723.973.162,713.289,11.12l3.972,9.56Z" transform="translate(-691.919 0.001)" fill="#35ed7f"></path></g></g></svg> 